<svg xmlns="http://www.w3.org/2000/svg" viewBox="0 0 114 83" width="114" height="83">
	<style>
		box-shadow: 50px 15px 75px 55px black;
		tspan { white-space:pre }
		.shp0 { fill: #f5c506 }
	</style>
	<g id="icon_area">
		<path id="shape_2" class="shp0" d="M84.75 76L26.84 76C13.68 76 3 65.46 3 52.45C3 41.77 10.25 32.86 20.12 29.98C20.1 29.62 20.03 29.27 20.03 28.91C20.03 19.62 27.66 12.09 37.06 12.09C38.95 12.09 40.73 12.46 42.42 13.02C47.38 6.37 55.3 2 64.31 2C77.27 2 88.06 10.95 90.83 22.91C102.94 25.64 112 36.3 112 49.09C112 63.95 99.8 76 84.75 76ZM64.31 49.09L64.31 28.91L50.69 28.91L50.69 49.09L40.26 49.09L57.5 66.12L74.74 49.09L64.31 49.09Z" />
	</g>
</svg>
